# xmcd
#
# Track frame offsets: 
#        150
#        33119
#        58847
#        66314
#        74617
#        80443
#        88645
#        93897
#        99253
#        105462
#        110762
#        118239
#        123874
#        133622
#        149685
#        164919
#        179460
#        188640
#        229153
#        262784
#
# Disc length: 4011 seconds
#
# Revision: 0
# Processed by: cddbd v1.5.2PL0 Copyright (c) Steve Scherf et al.
# Submitted via: ExactAudioCopy v0.99pb5
#
DISCID=1f0fa914
DTITLE=Ludolf Heikens - Hintsorgel Midwolda
DYEAR=2010
DGENRE=organ
TTITLE0=01. Praeludium d-moll - Georg Böhm
TTITLE1=02. Vater unser im Himmelreich - Georg Böhm
TTITLE2=03. Freu dich sehr, o meine Seele I - Georg Böhm
TTITLE3=04. Freu dich sehr, o meine Seele II - Georg Böhm
TTITLE4=05. Freu dich sehr, o meine Seele III - Georg Böhm
TTITLE5=06. Freu dich sehr, o meine Seele IV - Georg Böhm
TTITLE6=07. Freu dich sehr, o meine Seele V - Georg Böhm
TTITLE7=08. Freu dich sehr, o meine Seele VI - Georg Böhm
TTITLE8=09. Freu dich sehr, o meine Seele VII - Georg Böhm
TTITLE9=10. Freu dich sehr, o meine Seele VIII - Georg Böhm
TTITLE10=11.  Freu dich sehr, o meine Seele IX - Georg Böhm
TTITLE11=12. Freu dich sehr, o meine Seele X - Georg Böhm
TTITLE12=13. Freu dich sehr, o meine Seele XI - Georg Böhm
TTITLE13=14. Freu dich sehr, o meine Seele XII - Georg Böhm
TTITLE14=15. Concerto G-dur BWV 592 I - Johann Sebastian Bach
TTITLE15=16. Concerto G-dur BWV 592 II - Johann Sebastian Bach
TTITLE16=17. Concerto G-dur BWV 592 III - Johann Sebastian Bach
TTITLE17=18. Allein Gott in der Höh sei Ehr BWV 662 - Johann Sebastian
TTITLE17=Bach
TTITLE18=19 Praeludium e-moll BWV 548 - Johann Sebastian Bach
TTITLE19=20. Fuge e-moll BWV 548 - Johann Sebastian Bach
EXTD=
EXTT0=
EXTT1=
EXTT2=
EXTT3=
EXTT4=
EXTT5=
EXTT6=
EXTT7=
EXTT8=
EXTT9=
EXTT10=
EXTT11=
EXTT12=
EXTT13=
EXTT14=
EXTT15=
EXTT16=
EXTT17=
EXTT18=
EXTT19=
PLAYORDER=
